# File created by Blade
# Date/Time:  Thu Jan 22 19:01:15 2015
# Frame Rate: 120.000 fps
#------------------------------------------------------
:FULLY-SPECIFIED
:DEGREES
2760
root -3.330992 33.189034 0.268941 8.894330 0.416379 2.675245
RightUpLeg -0.152948 -7.826325 -1.116655
RightLeg -1.433589 -0.000000 0.000000
RightFoot -11.207337 -3.054488 3.443382
RightToeBase 5.303174 -0.000000 -0.000000
LeftUpLeg -1.585990 2.752197 1.968969
LeftLeg 1.068793 -0.000000 -0.000000
LeftFoot -10.097647 0.926685 -10.276424
LeftToeBase 7.167467 -0.000000 -0.000000
Spine -16.244590 1.509907 -1.727622
RightShoulder -6.719670 -29.346294 -7.796310
RightArm 137.760026 -36.763841 -46.698003
RightForeArm -13.623330 -0.000000 113.617995
RightHand 19.788585 -0.000000 -10.109628
RightHandThumb1 -24.326973 -0.000000 -32.862282
LeftShoulder -23.481783 -17.030965 54.651981
LeftArm 105.131049 -49.468963 -81.830650
LeftForeArm -11.822197 -0.000000 151.958940
LeftHand 16.026616 -0.000000 12.262561
LeftHandThumb1 -26.253704 0.000000 33.147579
Head 16.287399 -2.225145 11.396601
2761
root -3.329678 33.188605 0.267716 8.884956 0.420258 2.672914
RightUpLeg -0.149944 -7.822331 -1.116457
RightLeg -1.422064 -0.000000 0.000000
RightFoot -11.218971 -3.068901 3.453750
RightToeBase 5.306501 -0.000000 -0.000000
LeftUpLeg -1.590942 2.771679 1.958113
LeftLeg 1.079296 -0.000000 -0.000000
LeftFoot -10.123571 0.945070 -10.354919
LeftToeBase 7.287046 -0.000000 -0.000000
Spine -16.246239 1.503798 -1.711745
RightShoulder -6.685111 -29.361213 -7.815444
RightArm 137.704166 -36.802927 -46.646669
RightForeArm -13.564637 -0.000000 113.589530
RightHand 19.752278 0.000000 -9.916357
RightHandThumb1 -24.326973 -0.000000 -32.862282
LeftShoulder -23.467369 -17.015123 54.652147
LeftArm 105.036562 -49.537258 -81.838278
LeftForeArm -11.788814 0.000000 151.954853
LeftHand 15.844380 -0.000000 12.595638
LeftHandThumb1 -26.253704 0.000000 33.147579
Head 16.338783 -2.214276 11.368454
2762
root -3.329573 33.188921 0.267163 8.875451 0.416850 2.675532
RightUpLeg -0.142130 -7.821731 -1.121078
RightLeg -1.421041 -0.000000 0.000000
RightFoot -11.223870 -3.057893 3.479691
RightToeBase 5.317719 -0.000000 -0.000000
LeftUpLeg -1.586715 2.740148 1.965427
LeftLeg 1.102459 -0.000000 -0.000000
LeftFoot -10.124831 0.945536 -10.274889
LeftToeBase 7.217044 -0.000000 -0.000000
Spine -16.255384 1.522204 -1.711711
RightShoulder -6.655078 -29.381183 -7.818445
RightArm 137.677763 -36.850535 -46.616629
RightForeArm -13.588287 0.000000 113.561733
RightHand 19.676819 -0.000000 -9.810198
RightHandThumb1 -24.326973 -0.000000 -32.862282
LeftShoulder -23.437105 -17.059736 54.657259
LeftArm 104.862830 -49.592063 -81.770840
LeftForeArm -11.658426 -0.000000 151.955987
LeftHand 15.861525 0.000000 12.661825
LeftHandThumb1 -26.253704 0.000000 33.147579
Head 16.401793 -2.215926 11.343302
2763
root -3.328207 33.188370 0.266988 8.861066 0.421991 2.677191
RightUpLeg -0.128361 -7.821365 -1.126930
RightLeg -1.416926 -0.000000 0.000000
RightFoot -11.221059 -3.061876 3.448986
RightToeBase 5.286701 -0.000000 -0.000000
LeftUpLeg -1.583464 2.741374 1.962911
LeftLeg 1.125844 -0.000000 -0.000000
LeftFoot -10.130763 0.941151 -10.244308
LeftToeBase 7.167489 -0.000000 -0.000000
Spine -16.270423 1.568957 -1.708954
RightShoulder -6.650212 -29.413412 -7.833541
RightArm 137.630818 -36.905967 -46.560129
RightForeArm -13.593582 -0.000000 113.529918
RightHand 19.617236 -0.000000 -9.659610
RightHandThumb1 -24.326973 -0.000000 -32.862282
LeftShoulder -23.373056 -17.180021 54.680348
LeftArm 104.570142 -49.645259 -81.640524
LeftForeArm -11.546414 -0.000000 151.970256
LeftHand 15.834683 -0.000000 12.829195
LeftHandThumb1 -26.253704 0.000000 33.147579
Head 16.494275 -2.266018 11.288868
2764
root -3.327101 33.187725 0.266118 8.848949 0.427545 2.676489
RightUpLeg -0.124756 -7.824649 -1.126493
RightLeg -1.401013 -0.000000 0.000000
RightFoot -11.238215 -3.076856 3.436655
RightToeBase 5.287887 -0.000000 -0.000000
LeftUpLeg -1.579677 2.758688 1.954122
LeftLeg 1.122974 -0.000000 -0.000000
LeftFoot -10.150724 0.946004 -10.340950
LeftToeBase 7.252571 -0.000000 -0.000000
Spine -16.275510 1.594698 -1.700939
RightShoulder -6.644143 -29.424164 -7.843326
RightArm 137.603262 -36.941835 -46.536286
RightForeArm -13.616399 -0.000000 113.502620
RightHand 19.554027 -0.000000 -9.560988
RightHandThumb1 -24.326973 -0.000000 -32.862282
LeftShoulder -23.344459 -17.219662 54.698194
LeftArm 104.369496 -49.689485 -81.591912
LeftForeArm -11.459663 -0.000000 151.994425
LeftHand 15.828575 -0.000000 12.969082
LeftHandThumb1 -26.253704 0.000000 33.147579
Head 16.556778 -2.301020 11.239725
2765
root -3.326506 33.187498 0.265585 8.836185 0.431490 2.676963
RightUpLeg -0.116598 -7.833465 -1.130740
RightLeg -1.390851 -0.000000 0.000000
RightFoot -11.238288 -3.062603 3.445700
RightToeBase 5.269851 -0.000000 -0.000000
LeftUpLeg -1.578023 2.756954 1.952469
LeftLeg 1.139445 -0.000000 -0.000000
LeftFoot -10.160076 0.951753 -10.352313
LeftToeBase 7.253696 -0.000000 -0.000000
Spine -16.281601 1.621503 -1.700947
RightShoulder -6.643627 -29.437913 -7.842129
RightArm 137.554228 -36.993370 -46.499065
RightForeArm -13.601680 -0.000000 113.483483
RightHand 19.488490 0.000000 -9.371433
RightHandThumb1 -24.326973 -0.000000 -32.862282
LeftShoulder -23.295625 -17.280492 54.701355
LeftArm 104.130295 -49.771911 -81.475993
LeftForeArm -11.311021 0.000000 151.995406
LeftHand 15.752424 0.000000 13.289402
LeftHandThumb1 -26.253704 0.000000 33.147579
Head 16.622271 -2.327532 11.209860
2766
root -3.325973 33.187378 0.265020 8.824143 0.434182 2.676435
RightUpLeg -0.108877 -7.820562 -1.132175
RightLeg -1.380920 -0.000000 0.000000
RightFoot -11.257318 -3.076844 3.465068
RightToeBase 5.318242 -0.000000 -0.000000
LeftUpLeg -1.572359 2.753235 1.953968
LeftLeg 1.151701 -0.000000 -0.000000
LeftFoot -10.167881 0.950198 -10.331032
LeftToeBase 7.276437 -0.000000 -0.000000
Spine -16.289018 1.628182 -1.693936
RightShoulder -6.612949 -29.460147 -7.853517
RightArm 137.502725 -37.034020 -46.467500
RightForeArm -13.617734 -0.000000 113.465123
RightHand 19.368884 -0.000000 -9.150241
RightHandThumb1 -24.326973 -0.000000 -32.862282
LeftShoulder -23.255059 -17.339805 54.717053
LeftArm 103.808598 -49.860136 -81.269903
LeftForeArm -11.181579 -0.000000 152.005975
LeftHand 15.603563 0.000000 13.847359
LeftHandThumb1 -26.253704 0.000000 33.147579
Head 16.695189 -2.338644 11.179062
2767
root -3.325451 33.187506 0.265433 8.806936 0.437051 2.684185
RightUpLeg -0.092739 -7.813962 -1.142198
RightLeg -1.376558 -0.000000 0.000000
RightFoot -11.252910 -3.092111 3.447577
RightToeBase 5.269526 -0.000000 -0.000000
LeftUpLeg -1.556477 2.727705 1.956212
LeftLeg 1.167228 -0.000000 -0.000000
LeftFoot -10.157382 0.933179 -10.273234
LeftToeBase 7.184117 -0.000000 -0.000000
Spine -16.288272 1.632948 -1.702100
RightShoulder -6.600272 -29.467553 -7.847201
RightArm 137.459210 -37.077310 -46.468968
RightForeArm -13.662259 -0.000000 113.451891
RightHand 19.271142 0.000000 -8.949460
RightHandThumb1 -24.326973 -0.000000 -32.862282
LeftShoulder -23.216969 -17.385729 54.746843
LeftArm 103.439160 -49.969422 -81.011889
LeftForeArm -11.002462 -0.000000 152.018431
LeftHand 15.418959 0.000000 14.561478
LeftHandThumb1 -26.253704 0.000000 33.147579
Head 16.754481 -2.334161 11.167019
2768
root -3.324521 33.187244 0.264814 8.792255 0.443580 2.679886
RightUpLeg -0.081229 -7.828348 -1.140547
RightLeg -1.370058 -0.000000 0.000000
RightFoot -11.261362 -3.080439 3.447942
RightToeBase 5.278603 -0.000000 -0.000000
LeftUpLeg -1.544152 2.722254 1.956238
LeftLeg 1.164442 -0.000000 -0.000000
LeftFoot -10.172588 0.942482 -10.328010
LeftToeBase 7.211114 -0.000000 -0.000000
Spine -16.290176 1.644197 -1.685077
RightShoulder -6.580644 -29.481469 -7.873508
RightArm 137.412816 -37.121007 -46.418867
RightForeArm -13.639545 0.000000 113.405031
RightHand 19.184429 0.000000 -8.773220
RightHandThumb1 -24.326973 -0.000000 -32.862282
LeftShoulder -23.179751 -17.444040 54.758845
LeftArm 103.026236 -50.074023 -80.712352
LeftForeArm -10.862964 -0.000000 152.019652
LeftHand 15.413956 -0.000000 15.068368
LeftHandThumb1 -26.253704 0.000000 33.147579
Head 16.818238 -2.361011 11.116066
